<svg width="206" height="68" viewBox="0 0 206 68" fill="none" xmlns="http://www.w3.org/2000/svg">
<path d="M153.621 31.6124C151.777 27.1594 148.867 23.1461 144.986 20.2572C138.132 15.2117 129.626 14.687 123.623 21.2893C120.229 24.997 119.181 29.9935 118.688 34.8775C117.524 43.7604 119.498 53.5861 125.81 60.2548C128.638 63.1609 132.539 65.0422 136.475 65.9086C145.962 67.8893 153.473 61.3518 155.844 52.4847C157.634 45.5609 156.226 38.1816 153.634 31.6369L153.622 31.6109L153.621 31.6124ZM144.198 43.4216L144.195 43.4534C143.779 47.1351 142.599 51.2508 138.98 52.2901C136.543 52.9302 134.105 51.2695 132.734 49.3191C129.306 44.931 128.99 33.7041 132.766 29.4601C134.049 27.9782 136.102 27.3915 137.967 28.0777C140.477 28.9657 142.256 31.4351 143.215 33.9837C144.307 36.8683 144.515 40.1882 144.198 43.4216Z" fill="white"/>
<path d="M86.4582 40.4318C85.9623 34.9496 85.4678 25.1095 80.8774 21.7117C79.4908 20.73 77.8889 20.6349 76.5558 21.631C73.6208 24.1566 73.7206 28.4034 73.8045 32.3331C73.9881 37.1624 74.5982 42.2107 72.6305 46.7228C71.6545 48.9875 69.6434 51.1008 67.08 50.9322C63.6924 50.641 61.622 47.1798 60.6635 44.0372C59.008 38.7135 59.3203 32.1068 56.1164 27.4376C52.7245 22.5738 47.2839 23.9015 45.5114 29.3491C44.2246 33.1563 44.453 37.5444 44.8391 41.5476C45.3509 46.4114 45.8728 51.1873 47.6208 55.6879C52.5467 68.7773 68.1513 71.6806 78.6682 63.1912C85.1685 57.8113 87.0423 48.5709 86.4611 40.4607V40.4318H86.4582Z" fill="white"/>
<path d="M16.8655 29.6201C18.826 28.3833 21.2347 27.5054 23.363 26.4689C27.5298 24.4608 31.6807 22.2336 34.9425 18.8733C39.3855 14.2877 38.9401 8.7492 31.3973 10.4776C29.1057 11.0067 26.9573 11.9091 24.7741 12.8101C21.1277 14.3468 17.4698 15.9974 13.9045 17.733C4.00065 22.4296 -0.0909994 26.9489 0.00153255 38.1888C0.00442417 42.9517 0.455518 47.5632 1.09167 52.2469C1.72639 56.3827 2.33797 60.8227 4.53415 64.4511C6.78818 68.2266 11.3338 69.6451 13.6818 65.319C15.4009 62.2744 15.0495 58.0794 15.3242 54.6947C15.4934 53.0441 15.9503 51.4338 17.3253 50.4593C18.9431 49.26 22.3711 48.8073 24.7408 47.9712C26.7997 47.2778 28.737 46.2399 30.5053 44.9756C33.514 42.8248 39.1324 37.3238 36.6211 33.5196C34.4335 30.9766 30.1597 32.5306 27.2623 33.7862C23.8329 35.3417 20.7359 37.5545 18.3359 40.4275C17.493 41.278 15.8578 43.7489 14.8544 43.684H14.8457C13.783 43.4606 13.2466 40.55 13.0008 39.2281C12.3011 35.1745 13.1064 31.8718 16.8626 29.6245L16.8655 29.6201Z" fill="white"/>
<path d="M124.573 4.84977C123.157 3.3073 120.889 2.21171 118.748 1.58463C115.253 0.565449 111.558 0.275695 107.91 0.0911755C101.242 -0.195695 94.5287 0.220916 87.9272 0.969087L87.8968 0.973411C85.0905 1.34966 82.2017 1.85276 80.0084 3.29433C77.0778 5.25773 78.4397 7.98517 80.993 9.39502C85.1772 11.8269 91.1412 11.5934 93.7928 16.1199C95.1186 18.3846 95.3124 21.2591 95.4121 23.8697C95.723 29.6879 95.2155 35.6473 96.1697 41.4135C96.6989 44.869 99.1452 49.0596 103.126 48.235C109.371 46.3538 108.972 38.2464 108.896 32.9127C108.899 28.3184 108.216 23.2383 109.055 18.8228C109.5 16.5365 110.916 14.5054 113.089 13.5655C116.206 12.0605 120.312 12.3747 123.35 10.7241C125.925 9.34168 126.504 6.92994 124.573 4.84833V4.84977Z" fill="white"/>
<path d="M204.191 20.2341C203.442 16.2208 201.64 10.6376 196.743 10.6506C194.628 10.6737 192.996 12.3776 192.349 14.2891C191.721 15.9311 191.695 17.8945 191.871 19.7051C192.023 22.6242 192.715 25.614 192.462 28.4928C192.029 31.0444 189.261 26.7024 188.233 25.6457C187.526 24.7967 186.815 23.9447 186.101 23.0999C184.188 20.7315 182.034 18.6844 179.761 16.6893C177.767 14.9407 175.782 12.9831 173.298 11.9134C168.988 10.038 163.847 10.7285 163.546 16.277C163.406 18.8445 164.11 21.1495 164.496 23.6939C165.009 27.23 165.329 31.0127 165.728 34.5315C166.03 37.2172 166.381 39.6995 166.474 42.5279C166.61 45.5609 166.597 48.6502 166.602 51.6876C166.679 55.8638 166.955 61.7727 171.721 63.148L171.745 63.1552C177.998 64.8231 179.853 59.1765 180.487 54.1584C180.994 49.6679 180.015 45.2596 180.166 40.7836C180.2 36.0279 182.055 39.7658 183.309 41.5116C184.869 43.821 186.727 46.1923 188.199 48.6271C190.346 52.2685 192.156 56.24 195.169 59.3033C198.662 63.171 202.879 63.677 204.995 58.2827C205.807 56.2487 205.926 53.896 205.957 51.6948C206.069 46.3307 205.962 40.9292 205.634 35.5507C205.502 30.4159 205.375 25.2493 204.194 20.2312L204.191 20.2341Z" fill="white"/>
</svg>
