<svg width="158" height="239" viewBox="0 0 158 239" fill="none" xmlns="http://www.w3.org/2000/svg">
<path d="M70.5161 80.4534C78.7117 75.34 88.7854 71.7142 97.6801 67.4313C115.104 59.1331 132.46 49.927 146.093 36.0364C164.668 17.0872 162.807 -5.80566 131.271 1.33811C121.688 3.52367 112.707 7.25601 103.58 10.9762C88.3363 17.326 73.0407 24.1458 58.1308 31.3246C16.725 50.7315 -0.383893 69.413 0.00652336 115.865C0.0173254 135.55 1.9046 154.612 4.56653 173.966C7.2192 191.061 9.78083 209.408 18.9626 224.407C28.3897 240.009 47.392 245.872 57.211 227.99C64.4006 215.406 62.9315 198.069 64.0796 184.078C64.7879 177.259 66.6968 170.6 72.4435 166.574C79.2055 161.619 93.5429 159.748 103.45 156.29C112.059 153.424 120.156 149.134 127.552 143.911C140.132 135.021 163.625 112.283 153.125 96.563C143.981 86.0519 126.113 92.4748 113.999 97.6641C99.66 104.093 86.713 113.238 76.6763 125.109C73.1533 128.626 66.3141 138.834 62.1167 138.566L62.0828 138.562C57.6369 137.642 55.3994 125.614 54.3686 120.148C51.4428 103.396 54.8099 89.7462 70.5145 80.4549L70.5161 80.4534Z" fill="white"/>
</svg>
