<svg width="85" height="28" viewBox="0 0 85 28" fill="none" xmlns="http://www.w3.org/2000/svg">
<path d="M63.3871 13.0169C62.6265 11.1833 61.4256 9.53074 59.8244 8.34119C56.996 6.26365 53.4864 6.04758 51.0094 8.7662C49.6093 10.2929 49.1767 12.3503 48.9733 14.3613C48.4931 18.019 49.3074 22.0649 51.912 24.8108C53.0789 26.0075 54.6885 26.7821 56.3123 27.1388C60.2271 27.9544 63.3263 25.2625 64.3046 21.6114C65.0432 18.7604 64.4621 15.7218 63.3925 13.0269L63.3877 13.0163L63.3871 13.0169ZM59.4992 17.8795L59.498 17.8926C59.3262 19.4086 58.8394 21.1033 57.3462 21.5312C56.3404 21.7948 55.3346 21.111 54.769 20.3079C53.3545 18.501 53.2239 13.8781 54.7821 12.1306C55.3113 11.5204 56.1584 11.2788 56.928 11.5614C57.9637 11.927 58.698 12.9438 59.0936 13.9933C59.544 15.1811 59.6299 16.5481 59.4992 17.8795Z" fill="#19195E"/>
<path d="M35.6745 16.6484C35.4699 14.391 35.2659 10.3392 33.3717 8.94012C32.7996 8.53589 32.1386 8.49671 31.5886 8.90688C30.3775 9.94684 30.4187 11.6955 30.4533 13.3136C30.5291 15.3022 30.7808 17.3809 29.9689 19.2388C29.5662 20.1713 28.7364 21.0415 27.6786 20.9721C26.2809 20.8522 25.4266 19.427 25.031 18.133C24.348 15.9409 24.4768 13.2205 23.1548 11.2978C21.7553 9.29508 19.5104 9.84178 18.779 12.0849C18.248 13.6526 18.3423 15.4595 18.5016 17.1078C18.7127 19.1106 18.9281 21.0771 19.6494 22.9303C21.6819 28.3201 28.1207 29.5155 32.4602 26.0199C35.1424 23.8047 35.9155 19.9998 35.6757 16.6603V16.6484H35.6745Z" fill="#19195E"/>
<path d="M6.95906 12.1965C7.76801 11.6872 8.7619 11.3257 9.64006 10.8989C11.3594 10.0721 13.0721 9.155 14.418 7.77135C16.2513 5.88316 16.0675 3.60261 12.9552 4.31432C12.0096 4.53216 11.1231 4.90375 10.2223 5.27474C8.71776 5.9075 7.20843 6.58715 5.73728 7.30183C1.65075 9.23573 -0.0375483 11.0966 0.000632361 15.7248C0.00182551 17.686 0.187956 19.5849 0.450448 21.5134C0.712344 23.2164 0.964694 25.0447 1.87089 26.5387C2.80095 28.0933 4.67657 28.6774 5.64541 26.896C6.35473 25.6424 6.20976 23.9151 6.32311 22.5213C6.39291 21.8417 6.58143 21.1786 7.14877 20.7774C7.81633 20.2835 9.23081 20.0971 10.2086 19.7529C11.0581 19.4673 11.8575 19.04 12.5871 18.5194C13.8286 17.6338 16.1469 15.3686 15.1106 13.8022C14.208 12.7551 12.4445 13.395 11.249 13.912C9.83394 14.5525 8.55609 15.4636 7.56577 16.6466C7.21797 16.9968 6.54325 18.0142 6.12923 17.9875H6.12565C5.68717 17.8955 5.46584 16.6971 5.36442 16.1528C5.07568 14.4836 5.40797 13.1237 6.95787 12.1983L6.95906 12.1965Z" fill="#19195E"/>
<path d="M51.4014 1.99696C50.8173 1.36183 49.8813 0.910705 48.9978 0.652496C47.5558 0.232832 46.031 0.113522 44.5259 0.0375429C41.7745 -0.0805804 39.0046 0.0909655 36.2806 0.399036L36.2681 0.400817C35.1101 0.555742 33.9182 0.762903 33.0132 1.35649C31.8039 2.16495 32.3659 3.28801 33.4195 3.86854C35.1459 4.86991 37.6068 4.77375 38.7009 6.63761C39.248 7.57013 39.3279 8.75373 39.3691 9.82872C39.4973 12.2244 39.2879 14.6783 39.6817 17.0526C39.9 18.4755 40.9094 20.201 42.5518 19.8615C45.129 19.0869 44.9643 15.7485 44.9327 13.5523C44.9339 11.6605 44.6523 9.56873 44.9983 7.75058C45.1821 6.80915 45.7661 5.97279 46.6628 5.58578C47.949 4.96607 49.6433 5.09548 50.8967 4.41582C51.9592 3.84657 52.1984 2.85351 51.4014 1.99637V1.99696Z" fill="#19195E"/>
<path d="M84.2534 8.3317C83.9444 6.67916 83.2011 4.38021 81.1805 4.38555C80.3077 4.39504 79.6342 5.09666 79.3675 5.88375C79.108 6.55985 79.0973 7.36831 79.17 8.11385C79.2327 9.31586 79.5184 10.547 79.414 11.7323C79.2351 12.783 78.0932 10.9951 77.6691 10.56C77.3773 10.2104 77.0838 9.85958 76.7891 9.51174C75.9999 8.53648 75.111 7.69359 74.1731 6.87207C73.3505 6.15205 72.5314 5.34597 71.5065 4.90553C69.7281 4.13327 67.6067 4.4176 67.4826 6.70231C67.4247 7.75948 67.7152 8.70862 67.8745 9.7563C68.0863 11.2124 68.2182 12.7699 68.3828 14.2189C68.5075 15.3247 68.6525 16.3469 68.6906 17.5115C68.7467 18.7604 68.7413 20.0324 68.7437 21.2831C68.7754 23.0027 68.8893 25.4358 70.8556 26.0021L70.8657 26.0051C73.4459 26.6919 74.2113 24.3668 74.4726 22.3005C74.682 20.4515 74.2781 18.6363 74.3402 16.7932C74.3545 14.835 75.1199 16.3742 75.6371 17.093C76.2808 18.0439 77.0474 19.0204 77.6547 20.0229C78.5407 21.5223 79.2876 23.1577 80.5308 24.419C81.9721 26.0116 83.7123 26.22 84.5851 23.9988C84.9204 23.1612 84.9693 22.1925 84.9825 21.2861C85.0284 19.0774 84.9842 16.8532 84.8488 14.6385C84.7945 12.5242 84.742 10.3968 84.2546 8.33051L84.2534 8.3317Z" fill="#19195E"/>
</svg>
