<svg width="1278" height="422" viewBox="0 0 1278 422" fill="none" xmlns="http://www.w3.org/2000/svg">
<path d="M953.044 196.183C941.607 168.548 923.552 143.642 899.477 125.714C856.952 94.4021 804.183 91.1457 766.941 132.119C745.89 155.129 739.387 186.136 736.328 216.446C729.107 271.572 741.351 332.549 780.513 373.934C798.057 391.969 822.257 403.644 846.673 409.021C905.532 421.313 952.129 380.742 966.839 325.714C977.944 282.746 969.207 236.95 953.124 196.335L953.053 196.174L953.044 196.183ZM894.589 269.47L894.571 269.666C891.987 292.515 884.668 318.056 862.217 324.506C847.094 328.479 831.971 318.173 823.468 306.068C802.201 278.836 800.237 209.164 823.666 182.826C831.622 173.629 844.359 169.988 855.929 174.247C871.501 179.757 882.542 195.082 888.489 210.899C895.261 228.8 896.553 249.403 894.589 269.47Z" fill="white"/>
<path d="M536.377 250.915C533.3 216.893 530.232 155.827 501.754 134.74C493.152 128.648 483.214 128.058 474.944 134.239C456.735 149.913 457.354 176.268 457.874 200.656C459.013 230.625 462.799 261.955 450.591 289.956C444.536 304.011 432.06 317.126 416.156 316.079C395.141 314.272 382.296 292.792 376.349 273.29C366.079 240.251 368.016 199.251 348.14 170.275C327.097 140.09 293.344 148.33 282.347 182.137C274.364 205.764 275.781 232.996 278.176 257.84C281.352 288.024 284.59 317.663 295.434 345.592C325.993 426.824 422.803 444.841 488.048 392.157C528.376 358.77 540 301.425 536.395 251.094V250.915H536.377Z" fill="white"/>
<path d="M104.632 183.819C116.794 176.143 131.738 170.695 144.941 164.263C170.792 151.801 196.543 137.979 216.779 117.125C244.343 88.6676 241.58 54.2965 194.785 65.0229C180.569 68.3062 167.24 73.9065 153.695 79.4978C131.074 89.0344 108.381 99.2778 86.2617 110.049C24.8196 139.196 -0.56455 167.242 0.00950773 236.995C0.027447 266.553 2.82598 295.172 6.77262 324.238C10.7103 349.905 14.5045 377.459 28.1294 399.976C42.113 423.406 70.3136 432.209 84.8803 405.362C95.5452 386.468 93.3656 360.434 95.0699 339.429C96.1193 329.185 98.9537 319.192 107.484 313.145C117.521 305.702 138.788 302.892 153.489 297.704C166.262 293.401 178.281 286.959 189.251 279.114C207.917 265.766 242.773 231.627 227.193 208.018C213.622 192.237 187.107 201.881 169.132 209.673C147.856 219.326 128.643 233.059 113.754 250.888C108.524 256.167 98.3797 271.5 92.1547 271.098H92.1009C85.5082 269.711 82.1805 251.649 80.6556 243.445C76.3143 218.289 81.3104 197.793 104.614 183.846L104.632 183.819Z" fill="white"/>
<path d="M772.835 30.0971C764.053 20.5247 749.98 13.7256 736.696 9.83405C715.016 3.50911 692.09 1.71093 669.459 0.565825C628.091 -1.21446 586.445 1.37098 545.49 6.01404L545.301 6.04088C527.891 8.37583 509.97 11.498 496.363 20.4442C478.182 32.6289 486.631 49.555 502.471 58.3044C528.43 73.3965 565.429 71.9473 581.88 100.038C590.105 114.093 591.307 131.931 591.926 148.133C593.854 184.24 590.706 221.223 596.626 257.008C599.909 278.452 615.085 304.458 639.779 299.341C678.528 287.666 676.052 237.353 675.577 204.252C675.595 175.741 671.361 144.214 676.563 116.812C679.326 102.624 688.107 90.0185 701.589 84.1856C720.927 74.8458 746.401 76.7961 765.246 66.5527C781.221 57.9734 784.818 43.0064 772.835 30.0882V30.0971Z" fill="white"/>
<path d="M1266.78 125.571C1262.13 100.664 1250.95 66.016 1220.57 66.0965C1207.45 66.2396 1197.32 76.814 1193.31 88.6766C1189.41 98.8663 1189.25 111.051 1190.34 122.287C1191.29 140.403 1195.58 158.958 1194.01 176.823C1191.32 192.658 1174.15 165.712 1167.78 159.154C1163.39 153.885 1158.98 148.598 1154.55 143.356C1142.68 128.657 1129.32 115.953 1115.21 103.572C1102.85 92.7202 1090.53 80.5714 1075.12 73.9333C1048.38 62.2943 1016.49 66.5796 1014.62 101.013C1013.75 116.946 1018.12 131.251 1020.51 147.041C1023.7 168.986 1025.68 192.461 1028.16 214.299C1030.03 230.965 1032.21 246.371 1032.78 263.923C1033.63 282.746 1033.55 301.917 1033.58 320.767C1034.06 346.684 1035.77 383.354 1065.33 391.889L1065.49 391.934C1104.28 402.284 1115.79 367.242 1119.72 336.101C1122.87 308.233 1116.79 280.876 1117.73 253.098C1117.94 223.585 1129.45 246.782 1137.23 257.616C1146.9 271.948 1158.43 286.664 1167.56 301.774C1180.88 324.372 1192.11 349.019 1210.8 368.03C1232.48 392.032 1258.64 395.172 1271.76 361.696C1276.8 349.073 1277.54 334.472 1277.74 320.812C1278.43 287.523 1277.76 254.002 1275.73 220.624C1274.91 188.757 1274.12 156.694 1266.79 125.553L1266.78 125.571Z" fill="white"/>
</svg>
