<svg width="25" height="25" viewBox="0 0 25 25" fill="none" xmlns="http://www.w3.org/2000/svg">
<path d="M0.00723298 12.5162C0.00723298 10.0944 -0.0130841 7.67252 0.0154566 5.25114C0.03142 3.90303 0.357461 2.64153 1.32011 1.61665C2.1831 0.698232 3.24056 0.128211 4.49054 0.103533C8.1128 0.033369 11.7355 0.0120779 15.3583 0.00094845C17.0601 -0.00437433 18.7648 0.0106262 20.4637 0.0996618C22.895 0.226924 24.8348 2.12667 24.9102 4.55821C25.0104 7.79494 24.9963 11.036 24.9997 14.2752C25.0021 16.3448 24.991 18.4168 24.9073 20.484C24.813 22.8105 22.8916 24.7848 20.5595 24.8757C17.775 24.9841 14.9853 24.9711 12.198 24.9899C9.99358 25.0049 7.78821 25.0049 5.5838 24.9778C4.46104 24.9643 3.35133 24.8341 2.35967 24.2196C0.728491 23.2092 0.0473835 21.6743 0.0193265 19.8312C-0.0179215 17.3934 0.0101354 14.9546 0.0101354 12.5162C0.00916795 12.5162 0.00820047 12.5162 0.00723298 12.5162ZM12.941 11.2339C12.941 10.8817 12.9197 10.6484 12.9459 10.42C12.9913 10.0174 12.8109 9.88921 12.4321 9.89889C11.765 9.91535 11.097 9.91002 10.4294 9.90325C10.1029 9.89986 9.95246 10.0116 9.95391 10.3702C9.96407 13.4748 9.96407 16.5795 9.9544 19.6841C9.95343 20.0465 10.1073 20.1438 10.4362 20.138C11.1536 20.1249 11.8729 20.1104 12.5889 20.1428C13.0455 20.1636 13.151 19.9817 13.1452 19.5583C13.1244 17.9895 13.1166 16.4198 13.151 14.8515C13.1601 14.4324 13.2588 13.9781 13.4489 13.6079C13.8456 12.8351 14.7623 12.5385 15.7104 12.7853C16.4723 12.9837 16.9 13.5537 16.9077 14.4726C16.9227 16.1749 16.9174 17.8777 16.9029 19.5801C16.8995 19.9773 17.0131 20.1578 17.4432 20.1414C18.1601 20.1143 18.8789 20.1157 19.5958 20.1414C20.0104 20.1559 20.1492 20.0078 20.1463 19.5936C20.1309 17.5574 20.216 15.5173 20.1178 13.4855C20.0128 11.3143 18.5364 9.82195 16.3799 9.75131C15.0492 9.70727 13.9414 10.1931 12.9415 11.2349L12.941 11.2339ZM8.33387 15.0117C8.33387 13.4753 8.32371 11.9385 8.34112 10.4021C8.34548 10.0315 8.22164 9.89309 7.85641 9.89986C7.08823 9.91389 6.32005 9.91051 5.55187 9.9018C5.21809 9.89792 5.07152 10.0257 5.072 10.3741C5.07926 13.4802 5.07829 16.5867 5.07394 19.6933C5.07394 20.0107 5.19874 20.1423 5.52188 20.137C6.29006 20.1244 7.05872 20.1177 7.82642 20.1404C8.21874 20.152 8.34693 20.0175 8.34209 19.6212C8.32274 18.0848 8.33435 16.5485 8.33387 15.0117ZM8.60428 6.70184C8.59509 5.69922 7.74612 4.86209 6.73268 4.85532C5.7236 4.84903 4.88092 5.6818 4.86786 6.69797C4.85528 7.70881 5.74585 8.59868 6.75348 8.58175C7.73306 8.5653 8.61347 7.67155 8.60428 6.70184Z" fill="#333333"/>
</svg>
