<svg width="29" height="24" viewBox="0 0 29 24" fill="none" xmlns="http://www.w3.org/2000/svg">
<path fill-rule="evenodd" clip-rule="evenodd" d="M5.14373 0.104249H24.3986C24.9728 0.10423 25.4681 0.104213 25.8761 0.137043C26.3068 0.171694 26.7351 0.248198 27.1472 0.455018C27.7621 0.763563 28.262 1.25589 28.5753 1.86145C28.7853 2.26735 28.863 2.68918 28.8982 3.11328C28.9315 3.5151 28.9315 4.00294 28.9314 4.56843V19.2406C28.9315 19.8061 28.9315 20.2939 28.8982 20.6957C28.863 21.1198 28.7853 21.5417 28.5753 21.9476C28.262 22.5531 27.7621 23.0454 27.1472 23.354C26.7351 23.5608 26.3068 23.6373 25.8761 23.672C25.4681 23.7048 24.9728 23.7048 24.3986 23.7048H5.1437C4.56951 23.7048 4.07417 23.7048 3.66617 23.672C3.23554 23.6373 2.80722 23.5608 2.39507 23.354C1.7802 23.0454 1.2803 22.5531 0.967007 21.9476C0.757005 21.5417 0.679324 21.1198 0.64414 20.6957C0.610804 20.2939 0.610821 19.8061 0.610841 19.2406V4.56845C0.610821 4.00295 0.610804 3.51511 0.64414 3.11328C0.679324 2.68918 0.757005 2.26735 0.967007 1.86145C1.2803 1.25589 1.7802 0.763563 2.39507 0.455018C2.80722 0.248198 3.23554 0.171694 3.66617 0.137043C4.07417 0.104213 4.56953 0.10423 5.14373 0.104249ZM3.84357 2.27542C3.54766 2.29923 3.43795 2.33965 3.38409 2.36667C3.17914 2.46952 3.0125 2.63363 2.90807 2.83548C2.88063 2.88852 2.83959 2.99657 2.81541 3.288C2.7902 3.59195 2.78935 3.9913 2.78935 4.6098V19.1992C2.78935 19.8177 2.7902 20.2171 2.81541 20.521C2.83959 20.8124 2.88063 20.9205 2.90807 20.9735C3.0125 21.1754 3.17914 21.3395 3.38409 21.4423C3.43795 21.4694 3.54766 21.5098 3.84357 21.5336C4.1522 21.5584 4.5577 21.5593 5.18571 21.5593H24.3566C24.9846 21.5593 25.3901 21.5584 25.6987 21.5336C25.9946 21.5098 26.1043 21.4694 26.1582 21.4423C26.3632 21.3395 26.5298 21.1754 26.6342 20.9735C26.6617 20.9205 26.7027 20.8124 26.7269 20.521C26.7521 20.2171 26.7529 19.8177 26.7529 19.1992V4.6098C26.7529 3.9913 26.7521 3.59195 26.7269 3.288C26.7027 2.99657 26.6617 2.88852 26.6342 2.83548C26.5298 2.63363 26.3632 2.46952 26.1582 2.36667C26.1043 2.33965 25.9946 2.29923 25.6987 2.27542C25.3901 2.25058 24.9846 2.24975 24.3566 2.24975H5.18571C4.5577 2.24975 4.1522 2.25058 3.84357 2.27542Z" fill="black"/>
<path fill-rule="evenodd" clip-rule="evenodd" d="M5.23737 4.76159C5.63351 4.31572 6.32166 4.27053 6.77439 4.66067L14.7711 11.5518L22.7679 4.66067C23.2206 4.27053 23.9088 4.31572 24.3049 4.76159C24.7011 5.20746 24.6552 5.88519 24.2025 6.27533L14.7711 14.4027L5.33983 6.27533C4.8871 5.88519 4.84122 5.20746 5.23737 4.76159Z" fill="black"/>
</svg>
