<svg width="37" height="56" viewBox="0 0 37 56" fill="none" xmlns="http://www.w3.org/2000/svg">
<path d="M16.5133 18.851C18.4325 17.6529 20.7915 16.8033 22.8745 15.7998C26.9547 13.8555 31.019 11.6984 34.2117 8.44368C38.5615 4.00371 38.1257 -1.36032 30.7408 0.313532C28.4967 0.825631 26.3935 1.70015 24.256 2.57183C20.6864 4.05966 17.1045 5.6576 13.6129 7.33965C3.91661 11.8869 -0.0898991 16.2641 0.00152762 27.1483C0.00405721 31.7607 0.446013 36.2271 1.06938 40.7618C1.69057 44.7674 2.29045 49.0662 4.4406 52.5807C6.64821 56.2363 11.0981 57.6101 13.3975 53.4203C15.0811 50.4718 14.7371 46.4095 15.006 43.1313C15.1719 41.5334 15.6189 39.9732 16.9646 39.0299C18.5481 37.8689 21.9056 37.4305 24.2256 36.6201C26.2417 35.9488 28.1378 34.9434 29.8699 33.7197C32.8158 31.6367 38.3173 26.309 35.8585 22.6256C33.717 20.1628 29.5327 21.6677 26.6959 22.8836C23.3381 24.39 20.3062 26.5328 17.9558 29.3143C17.1308 30.1382 15.5292 32.5301 14.5463 32.4674L14.5384 32.4663C13.4973 32.2507 12.9733 29.4326 12.7319 28.1518C12.0467 24.2268 12.8352 21.0284 16.5129 18.8514L16.5133 18.851Z" fill="#747DFF"/>
</svg>
