<svg width="393" height="852" viewBox="0 0 393 852" fill="none" xmlns="http://www.w3.org/2000/svg">
<path d="M109.097 321.722L109.031 321.764C77.1006 340.947 57.6451 364.667 47.6856 392.285C37.7262 419.902 37.297 451.321 43.2395 485.834L43.2419 485.847L43.3338 486.341C45.4247 497.59 48.7215 515.327 53.7096 530.805C56.2395 538.655 59.2211 545.977 62.7318 551.594C66.222 557.178 70.3562 561.27 75.2667 562.301L75.3017 562.309L75.3372 562.313L75.4747 562.332L75.5098 562.337L75.5451 562.339C80.1827 562.639 85.3564 560.019 90.5997 555.991C95.8855 551.93 101.438 546.283 106.868 540.191C111.868 534.582 116.793 528.563 121.337 523.01C121.732 522.527 122.125 522.047 122.514 521.572C127.393 515.614 131.768 510.323 135.296 506.751L135.326 506.721L135.353 506.689C175.896 458.047 228.209 420.558 286.17 394.196C310.696 383.539 340.943 371.664 369.649 367.82C398.338 363.979 425.25 368.183 443.449 389.361C464.298 421.09 451.484 460.061 426.69 495.986C401.931 531.86 365.495 564.27 340.081 582.488C310.19 603.898 277.481 621.478 242.714 633.215L242.707 633.218L242.7 633.22C228.645 638.197 212.402 642.367 196.002 646.576C189.043 648.362 182.057 650.155 175.197 652.02C152.261 658.257 130.719 665.306 116.851 675.611C93.2128 692.414 85.4415 720.152 82.5657 748.24L82.5647 748.25L82.5638 748.261C81.4614 761.888 80.9538 776.283 80.4356 790.978L80.3474 793.478C79.7962 809.05 79.1946 824.936 77.8302 840.635C75.1004 872.046 69.3233 902.611 54.8675 928.277L54.8634 928.284L54.8594 928.291C44.9918 946.519 32.8543 958.63 19.6551 965.593C6.45966 972.554 -7.85912 974.403 -22.1561 972.01C-50.7796 967.219 -79.3456 945.405 -98.3312 913.532L-98.3341 913.528C-133.995 854.435 -144.935 782.627 -155.289 714.669C-155.698 711.989 -156.105 709.315 -156.513 706.648C-167.292 627.153 -174.93 548.884 -174.974 468.066L-174.974 468.058C-175.763 372.747 -158.854 306.079 -120.93 253.299C-82.9887 200.495 -23.9233 161.459 59.8936 121.61L59.9031 121.605C120.278 92.1183 182.217 64.105 243.945 38.0217C245.362 37.4356 246.779 36.8495 248.194 36.2638C283.721 21.5655 318.717 7.0866 355.953 -1.5277C387.791 -8.84339 412.007 -8.43535 429.259 -2.61005C446.464 3.1995 456.774 14.4015 460.901 28.8528C465.043 43.356 462.989 61.2563 455.163 80.4382C447.342 99.6083 433.784 119.981 415.046 139.372C359.954 196.308 289.794 234.071 219.228 268.161L219.224 268.163C207.105 274.082 194.457 279.69 181.722 285.337C175.543 288.077 169.343 290.826 163.173 293.624C144.308 302.179 125.757 311.179 109.097 321.722Z" stroke="#DFF600" stroke-width="2"/>
</svg>
