<svg width="28" height="28" viewBox="0 0 28 28" fill="none" xmlns="http://www.w3.org/2000/svg">
<g clip-path="url(#clip0_32_1419)">
<path d="M14.0396 -0.000179974C6.38153 -0.0231857 0.0669969 6.14286 0.000533478 13.8779C-0.0669524 21.7167 6.27723 27.9978 13.9921 27.9998C21.7284 28.0019 27.9939 21.7479 28 14.0016C28.0067 6.28703 21.7484 0.0228257 14.0396 -0.000179974ZM22.5884 16.9295C22.5679 17.6595 22.505 18.408 22.32 19.1104C21.8292 20.9718 20.5827 22.0935 18.6895 22.412C17.8056 22.5602 16.896 22.5965 15.9972 22.6042C14.1388 22.6206 12.2799 22.5991 10.422 22.5618C9.63772 22.5459 8.86112 22.4079 8.14076 22.072C6.65505 21.3793 5.7808 20.1917 5.56403 18.5895C5.42037 17.5286 5.43519 16.4458 5.39276 15.3722C5.37435 14.9142 5.38969 14.4551 5.38969 13.9965C5.37998 13.9965 5.37026 13.9965 5.36004 13.9965C5.38969 12.7394 5.40247 11.4817 5.45513 10.2261C5.49654 9.243 5.72405 8.30386 6.29462 7.47565C7.08911 6.3223 8.20569 5.69348 9.57637 5.53551C10.3913 5.44144 11.2155 5.39492 12.036 5.39134C13.8863 5.38316 15.7375 5.39594 17.5873 5.43939C18.5172 5.46138 19.4293 5.64184 20.2473 6.12343C21.5158 6.87035 22.2601 7.99201 22.4386 9.4429C22.5551 10.3897 22.594 11.3493 22.6083 12.3043C22.6313 13.8462 22.6313 15.3896 22.5879 16.9305L22.5884 16.9295Z" fill="#333333"/>
<path d="M20.9182 9.76107C20.7709 8.49524 20.0991 7.58013 18.8302 7.21255C18.4166 7.09292 17.9784 7.02083 17.5485 7.00294C16.3792 6.95386 15.2079 6.94568 14.0377 6.92114C14.0377 6.92932 14.0377 6.9375 14.0377 6.94568C13.4998 6.94568 12.961 6.92881 12.4241 6.94926C11.4926 6.98454 10.554 6.98147 9.63371 7.10723C8.4343 7.27083 7.57232 7.94669 7.2262 9.13992C7.08049 9.64195 7.00585 10.1788 6.99153 10.7017C6.9491 12.2355 6.93427 13.7707 6.94552 15.3049C6.95268 16.2845 6.96955 17.2696 7.08356 18.2405C7.23233 19.5048 7.90464 20.4199 9.17051 20.7921C9.56827 20.9091 9.9921 20.9853 10.4057 20.994C12.2007 21.0308 13.9963 21.0533 15.7913 21.0451C16.6512 21.041 17.5198 21.0201 18.3685 20.8963C19.6727 20.7062 20.5352 19.9439 20.8405 18.6357C20.9407 18.2077 21.0025 17.7619 21.0122 17.3228C21.0455 15.7809 21.0675 14.2385 21.0562 12.6961C21.049 11.7171 21.0317 10.7314 20.9187 9.76056L20.9182 9.76107ZM18.4166 14.2681C18.3174 16.5922 16.2212 18.5247 13.9058 18.4271C11.3439 18.3192 9.47828 16.2972 9.58309 13.7436C9.67972 11.3853 11.7682 9.48091 14.1563 9.57293C16.6497 9.66956 18.525 11.736 18.4171 14.2681H18.4166ZM18.6011 10.4328C18.0229 10.4349 17.5618 9.97579 17.5623 9.3986C17.5623 8.82448 18.0275 8.3659 18.6068 8.36948C19.1712 8.37255 19.6288 8.82653 19.6375 9.39247C19.6467 9.96096 19.1778 10.4313 18.6011 10.4333V10.4328Z" fill="#333333"/>
<path d="M14.0096 11.1297C12.417 11.125 11.1307 12.4129 11.1343 14.0079C11.1379 15.6004 12.4221 16.8836 14.0275 16.8657C15.6829 16.8473 16.8757 15.5007 16.866 14.0038C16.867 12.418 15.5909 11.1343 14.0101 11.1297H14.0096Z" fill="#333333"/>
</g>
<defs>
<clipPath id="clip0_32_1419">
<rect width="28" height="28" fill="white"/>
</clipPath>
</defs>
</svg>
