<svg width="24" height="14" viewBox="0 0 24 14" fill="none" xmlns="http://www.w3.org/2000/svg">
<path d="M7.32338 12.8877L6.81671 12.3452C6.77561 12.3777 6.73442 12.4096 6.69318 12.4409L6.69264 12.4413C5.80963 13.1111 4.72148 13.3718 3.69039 13.1128C3.52199 13.0704 3.35892 13.0151 3.20221 12.9476C3.20213 12.9476 3.20205 12.9476 3.20196 12.9475C2.38879 12.5973 1.74673 11.9194 1.41784 11.03L0.270784 6.77601C-0.0288258 8.19791 -0.151178 9.62668 0.281766 11.0445C0.673925 12.3291 1.4551 13.3599 2.98453 13.7661C4.60493 14.1971 6.13278 13.9994 7.32338 12.8877ZM7.32338 12.8877C8.11554 12.1479 8.823 11.3217 9.45516 10.4694L6.81675 12.3451L7.32338 12.8877Z" fill="white" stroke="white" stroke-width="3"/>
</svg>
