<svg width="26" height="25" viewBox="0 0 26 25" fill="none" xmlns="http://www.w3.org/2000/svg">
<path fill-rule="evenodd" clip-rule="evenodd" d="M12.9668 2.31764C10.1428 2.31764 7.8534 4.60701 7.8534 7.43108C7.8534 10.2552 10.1428 12.5445 12.9668 12.5445C15.7909 12.5445 18.0803 10.2552 18.0803 7.43108C18.0803 4.60701 15.7909 2.31764 12.9668 2.31764ZM5.80802 7.43108C5.80802 3.47738 9.01314 0.272263 12.9668 0.272263C16.9206 0.272263 20.1257 3.47738 20.1257 7.43108C20.1257 11.3848 16.9206 14.5899 12.9668 14.5899C9.01314 14.5899 5.80802 11.3848 5.80802 7.43108Z" fill="black"/>
<path fill-rule="evenodd" clip-rule="evenodd" d="M8.30142 13.3886C9.783 12.8307 11.3681 12.5445 12.9668 12.5445C14.5656 12.5445 16.1507 12.8307 17.6323 13.3886C19.1139 13.9465 20.4661 14.7665 21.6094 15.8059C22.753 16.8454 23.6658 18.0849 24.2907 19.4564C24.9158 20.8282 25.2391 22.3025 25.2391 23.7941C25.2391 24.3589 24.7812 24.8168 24.2164 24.8168C23.6516 24.8168 23.1937 24.3589 23.1937 23.7941C23.1937 22.5997 22.9351 21.4142 22.4295 20.3045C21.9237 19.1944 21.1793 18.1791 20.2336 17.3193C19.2877 16.4594 18.1596 15.7727 16.9115 15.3028C15.6633 14.8328 14.3227 14.5899 12.9668 14.5899C11.611 14.5899 10.2704 14.8328 9.02221 15.3028C7.77413 15.7727 6.64603 16.4594 5.70013 17.3193C4.75442 18.1791 4.01002 19.1944 3.50423 20.3045C2.99859 21.4142 2.73996 22.5997 2.73996 23.7941C2.73996 24.3589 2.28208 24.8168 1.71727 24.8168C1.15245 24.8168 0.69458 24.3589 0.69458 23.7941C0.69458 22.3025 1.0179 20.8282 1.64295 19.4564C2.26785 18.0849 3.18073 16.8454 4.32426 15.8059C5.46759 14.7665 6.81978 13.9465 8.30142 13.3886Z" fill="black"/>
</svg>
