<svg width="166" height="114" viewBox="0 0 166 114" fill="none" xmlns="http://www.w3.org/2000/svg">
<path d="M0 12C0 5.37258 5.37258 0 12 0H154C160.627 0 166 5.37258 166 12V102C166 108.627 160.627 114 154 114H12C5.37259 114 0 108.627 0 102V12Z" fill="#19195E"/>
<path d="M121.87 32.6777C122.275 31.6165 121.702 30.4255 120.656 30.0011C108.501 25.0744 96.3441 20.1477 84.1874 15.221C83.4637 14.9263 82.6542 14.9263 81.9285 15.221C69.7145 20.1559 57.4985 25.0929 45.2824 30.0278C44.2358 30.4523 43.7268 31.6515 44.1479 32.7086C44.569 33.7656 45.7587 34.2766 46.8074 33.8522L82.2413 19.4924C82.7299 19.2946 83.2777 19.2946 83.7663 19.4924L119.198 33.8522C120.255 34.2807 121.459 33.7553 121.87 32.6777Z" fill="white"/>
<path d="M38.4891 57L35.1141 47.1H36.8991L39.5691 55.575H39.7341L42.4341 47.1H44.1891L40.7991 57H38.4891Z" fill="white"/>
<path d="M45.8272 57V47.1H47.4922V57H45.8272Z" fill="white"/>
<path d="M49.9434 57V47.1H51.5784V57H49.9434ZM50.9034 57V55.62H57.1134V57H50.9034ZM50.9034 52.605V51.33H56.3934V52.605H50.9034ZM50.9034 48.465V47.1H57.0984V48.465H50.9034Z" fill="white"/>
<path d="M60.8065 57L58.4215 47.1H60.1915L61.9915 55.545H62.1415L64.0765 47.1H66.2365L68.1565 55.545H68.3065L70.1515 47.1H71.8465L69.4015 57H67.0915L65.2165 48.555H65.0815L63.1765 57H60.8065Z" fill="white"/>
<path d="M78.0584 57V55.62H80.9684C81.6084 55.62 82.1384 55.475 82.5584 55.185C82.9784 54.895 83.2884 54.485 83.4884 53.955C83.6984 53.425 83.8034 52.8 83.8034 52.08C83.8034 51.46 83.7384 50.925 83.6084 50.475C83.4784 50.015 83.2784 49.64 83.0084 49.35C82.7484 49.06 82.4134 48.845 82.0034 48.705C81.6034 48.555 81.1334 48.48 80.5934 48.48H78.0584V47.1H80.5484C81.6884 47.1 82.6234 47.295 83.3534 47.685C84.0834 48.075 84.6234 48.635 84.9734 49.365C85.3234 50.085 85.4984 50.955 85.4984 51.975C85.4984 52.675 85.4184 53.3 85.2584 53.85C85.0984 54.39 84.8784 54.86 84.5984 55.26C84.3284 55.65 84.0034 55.975 83.6234 56.235C83.2534 56.495 82.8434 56.69 82.3934 56.82C81.9534 56.94 81.4934 57 81.0134 57H78.0584ZM77.2334 57V47.1H78.8684V57H77.2334Z" fill="white"/>
<path d="M91.7588 57.195C91.0388 57.195 90.3988 57.08 89.8388 56.85C89.2888 56.61 88.8188 56.27 88.4288 55.83C88.0488 55.39 87.7588 54.855 87.5588 54.225C87.3688 53.595 87.2738 52.885 87.2738 52.095C87.2738 50.935 87.4688 49.975 87.8588 49.215C88.2488 48.445 88.7838 47.87 89.4638 47.49C90.1438 47.1 90.9188 46.905 91.7888 46.905C92.4688 46.905 93.0838 47.02 93.6338 47.25C94.1838 47.47 94.6538 47.805 95.0438 48.255C95.4438 48.695 95.7488 49.24 95.9588 49.89C96.1688 50.53 96.2738 51.26 96.2738 52.08C96.2738 52.88 96.1738 53.6 95.9738 54.24C95.7738 54.87 95.4788 55.405 95.0888 55.845C94.6988 56.285 94.2238 56.62 93.6638 56.85C93.1138 57.08 92.4788 57.195 91.7588 57.195ZM91.7888 55.83C92.3888 55.83 92.8988 55.685 93.3188 55.395C93.7388 55.105 94.0588 54.69 94.2788 54.15C94.4988 53.6 94.6088 52.93 94.6088 52.14C94.6088 51.33 94.4938 50.64 94.2638 50.07C94.0438 49.5 93.7188 49.065 93.2888 48.765C92.8688 48.455 92.3588 48.3 91.7588 48.3C91.1788 48.3 90.6738 48.45 90.2438 48.75C89.8238 49.04 89.4988 49.465 89.2688 50.025C89.0488 50.585 88.9388 51.275 88.9388 52.095C88.9388 52.695 89.0038 53.23 89.1338 53.7C89.2638 54.16 89.4488 54.55 89.6888 54.87C89.9288 55.18 90.2238 55.42 90.5738 55.59C90.9338 55.75 91.3388 55.83 91.7888 55.83Z" fill="white"/>
<path d="M98.3711 57V47.1H102.001C102.521 47.1 102.991 47.14 103.411 47.22C103.831 47.3 104.206 47.42 104.536 47.58C104.866 47.74 105.146 47.94 105.376 48.18C105.606 48.41 105.776 48.68 105.886 48.99C106.006 49.29 106.066 49.625 106.066 49.995C106.066 50.345 106.011 50.665 105.901 50.955C105.801 51.235 105.641 51.485 105.421 51.705C105.211 51.925 104.946 52.105 104.626 52.245C104.316 52.375 103.951 52.465 103.531 52.515V52.71C103.941 52.76 104.286 52.865 104.566 53.025C104.846 53.185 105.081 53.41 105.271 53.7C105.461 53.99 105.621 54.37 105.751 54.84L106.366 57H104.581L104.101 55.02C104.001 54.62 103.851 54.3 103.651 54.06C103.451 53.81 103.201 53.63 102.901 53.52C102.601 53.41 102.246 53.355 101.836 53.355H100.006V57H98.3711ZM100.006 52.065H101.881C102.701 52.065 103.321 51.915 103.741 51.615C104.171 51.315 104.386 50.855 104.386 50.235C104.386 49.615 104.181 49.16 103.771 48.87C103.371 48.57 102.751 48.42 101.911 48.42H100.006V52.065Z" fill="white"/>
<path d="M108.273 57V47.1H110.778L113.883 55.215H113.958L117.048 47.1H119.448V57H117.888L117.993 48.75H117.858L114.588 57H113.088L109.848 48.75H109.713L109.818 57H108.273Z" fill="white"/>
<path d="M125.467 57.195C124.817 57.195 124.237 57.13 123.727 57C123.227 56.86 122.802 56.66 122.452 56.4C122.112 56.13 121.852 55.8 121.672 55.41C121.502 55.01 121.422 54.55 121.432 54.03L122.887 53.64C122.867 54.14 122.962 54.555 123.172 54.885C123.382 55.215 123.691 55.465 124.102 55.635C124.521 55.795 125.002 55.875 125.542 55.875C126.072 55.875 126.517 55.81 126.877 55.68C127.237 55.55 127.507 55.375 127.687 55.155C127.877 54.925 127.972 54.665 127.972 54.375C127.972 54.045 127.857 53.785 127.627 53.595C127.407 53.395 127.112 53.24 126.742 53.13C126.371 53.01 125.957 52.9 125.497 52.8C125.027 52.7 124.562 52.585 124.102 52.455C123.642 52.325 123.222 52.155 122.842 51.945C122.472 51.725 122.172 51.445 121.942 51.105C121.722 50.765 121.612 50.335 121.612 49.815C121.612 49.215 121.761 48.7 122.062 48.27C122.362 47.84 122.786 47.505 123.337 47.265C123.896 47.025 124.557 46.905 125.317 46.905C126.077 46.905 126.742 47.025 127.312 47.265C127.892 47.495 128.346 47.835 128.676 48.285C129.016 48.725 129.192 49.26 129.202 49.89L127.702 50.28C127.702 49.94 127.642 49.64 127.522 49.38C127.412 49.12 127.252 48.905 127.042 48.735C126.832 48.565 126.582 48.44 126.292 48.36C126.002 48.27 125.672 48.225 125.302 48.225C124.872 48.225 124.497 48.29 124.177 48.42C123.857 48.54 123.607 48.71 123.427 48.93C123.257 49.14 123.172 49.39 123.172 49.68C123.172 50.04 123.297 50.325 123.547 50.535C123.807 50.735 124.147 50.9 124.567 51.03C124.987 51.15 125.437 51.265 125.917 51.375C126.347 51.465 126.772 51.575 127.192 51.705C127.622 51.825 128.012 51.99 128.362 52.2C128.722 52.41 129.007 52.685 129.217 53.025C129.437 53.365 129.547 53.8 129.547 54.33C129.547 54.91 129.391 55.415 129.081 55.845C128.781 56.275 128.332 56.61 127.732 56.85C127.132 57.08 126.377 57.195 125.467 57.195Z" fill="white"/>
</svg>
