<svg width="28" height="25" viewBox="0 0 28 25" fill="none" xmlns="http://www.w3.org/2000/svg">
<path d="M26.4353 6.71566C22.9411 4.73908 19.3643 2.89896 15.9403 0.812401C14.3996 -0.1265 13.185 -0.393302 11.6969 0.778796C10.8383 1.45497 9.77333 1.87554 8.80433 2.41729C5.99019 3.98959 3.15747 5.53032 0.387711 7.17493C0.305155 7.22381 0.234982 7.29509 0.175129 7.38165C-0.243845 7.98043 0.130755 8.80527 0.855186 8.94173C1.05332 8.97941 1.25042 9.00385 1.44856 9.00486C1.80974 9.0069 2.17299 8.679 2.72096 8.40711C2.75914 9.08124 2.81177 9.58328 2.8128 10.0853C2.82003 13.5446 2.81487 17.0038 2.81693 20.4631C2.81899 24.1199 3.67758 24.9743 7.43389 24.9886C11.6793 25.0049 15.9258 25.0018 20.1713 24.9896C23.8471 24.9794 24.7222 24.0884 24.7243 20.401C24.7263 16.4835 24.7243 12.566 24.7243 8.46617C25.1536 8.58633 25.3104 8.60772 25.4477 8.67187C26.232 9.04051 27.1483 9.86026 27.7923 8.73399C28.5054 7.48552 27.202 7.14947 26.4342 6.71464L26.4353 6.71566Z" fill="black"/>
</svg>
