<svg width="29" height="26" viewBox="0 0 29 26" fill="none" xmlns="http://www.w3.org/2000/svg">
<path fill-rule="evenodd" clip-rule="evenodd" d="M5.59897 6.76919V21.3294C5.59897 21.9377 5.59982 22.3305 5.62503 22.6295C5.64921 22.9161 5.69025 23.0224 5.71769 23.0745C5.82212 23.2731 5.98875 23.4345 6.1937 23.5356C6.24756 23.5622 6.35727 23.602 6.65317 23.6254C6.9618 23.6498 7.36729 23.6506 7.9953 23.6506H20.6305C21.2585 23.6506 21.664 23.6498 21.9726 23.6254C22.2685 23.602 22.3782 23.5622 22.4321 23.5356C22.637 23.4345 22.8037 23.2731 22.9081 23.0745C22.9355 23.0224 22.9766 22.9161 23.0008 22.6295C23.026 22.3305 23.0268 21.9377 23.0268 21.3294V6.76919H25.2053V21.3701C25.2053 21.9263 25.2053 22.4061 25.172 22.8013C25.1368 23.2184 25.0591 23.6333 24.8491 24.0325C24.5359 24.6281 24.036 25.1124 23.4211 25.4158C23.0089 25.6192 22.5806 25.6945 22.15 25.7286C21.742 25.7608 21.2467 25.7608 20.6725 25.7608H7.95329C7.37911 25.7608 6.88377 25.7608 6.47578 25.7286C6.04515 25.6945 5.61684 25.6192 5.20469 25.4158C4.58983 25.1124 4.08993 24.6281 3.77665 24.0325C3.56665 23.6333 3.48897 23.2184 3.45378 22.8013C3.42045 22.4061 3.42047 21.9263 3.42049 21.3701L3.42049 6.76919H5.59897Z" fill="black"/>
<path fill-rule="evenodd" clip-rule="evenodd" d="M12.7532 16.265C12.7648 16.265 12.7764 16.265 12.788 16.265H15.8378C15.8494 16.265 15.861 16.265 15.8726 16.265C16.1475 16.265 16.4152 16.2649 16.6419 16.2829C16.8909 16.3026 17.1847 16.3491 17.4804 16.495C17.8903 16.6973 18.2236 17.0201 18.4324 17.4172C18.5831 17.7036 18.6311 17.9881 18.6514 18.2293C18.6699 18.449 18.6699 18.7083 18.6699 18.9746C18.6699 18.9858 18.6699 18.997 18.6699 19.0082V25.7608H9.95593V19.0082C9.95593 18.997 9.95593 18.9858 9.95593 18.9746C9.9559 18.7083 9.95586 18.449 9.97439 18.2293C9.99473 17.9881 10.0427 17.7036 10.1934 17.4172C10.4022 17.0201 10.7355 16.6973 11.1454 16.495C11.441 16.3491 11.7349 16.3026 11.9838 16.2829C12.2106 16.2649 12.4783 16.265 12.7532 16.265ZM12.1469 18.3873C12.1465 18.3916 12.146 18.3963 12.1456 18.4012C12.1353 18.5242 12.1344 18.6954 12.1344 19.0082V23.6506H16.4914V19.0082C16.4914 18.6954 16.4905 18.5242 16.4802 18.4012C16.4797 18.3963 16.4793 18.3916 16.4789 18.3873C16.4744 18.3869 16.4696 18.3865 16.4645 18.3861C16.3376 18.376 16.1608 18.3752 15.8378 18.3752H12.788C12.465 18.3752 12.2882 18.376 12.1612 18.3861C12.1562 18.3865 12.1514 18.3869 12.1469 18.3873Z" fill="black"/>
<path fill-rule="evenodd" clip-rule="evenodd" d="M0.301143 9.411C0.604257 9.91434 1.27122 10.0843 1.79084 9.79074L14.3129 2.71523L26.8349 9.79074C27.3546 10.0843 28.0215 9.91434 28.3246 9.411C28.6278 8.90767 28.4522 8.26162 27.9326 7.96801L14.3129 0.272263L0.693169 7.96801C0.173545 8.26162 -0.00197144 8.90767 0.301143 9.411Z" fill="black"/>
</svg>
