<svg width="26" height="27" viewBox="0 0 26 27" fill="none" xmlns="http://www.w3.org/2000/svg">
<path d="M25.9474 5.88061C25.9307 4.38945 24.8658 3.10889 23.4169 2.87809C23.0477 2.81959 22.6763 2.77917 22.3049 2.74088V2.30481C22.3049 1.03169 21.2902 0 20.0381 0C18.7859 0 17.7712 1.03169 17.7712 2.30481V2.66643H8.00798V2.37501C8.00798 1.10188 6.99327 0.0701972 5.7411 0.0701972C4.48892 0.0701972 3.47421 1.10188 3.47421 2.37501V2.76428C1.20105 3.10676 0.0796402 3.98848 0.054534 6.05079C-0.0197387 11.9622 -0.0166004 17.8758 0.054534 23.7873C0.077548 25.7039 1.26068 26.9313 3.09553 26.9493C9.71207 27.0164 16.3286 27.0174 22.9451 26.9493C24.7727 26.9302 25.9181 25.806 25.9422 23.9606C26.0217 17.9343 26.0154 11.9048 25.9464 5.87848L25.9474 5.88061ZM10.8795 13.781C10.8795 13.7065 10.8837 13.6331 10.89 13.5619C10.8921 13.5374 10.8973 13.513 10.9004 13.4885C10.9067 13.4396 10.9119 13.3906 10.9213 13.3428C10.9266 13.3141 10.9349 13.2864 10.9412 13.2588C10.9506 13.2162 10.9601 13.1737 10.9716 13.1322C10.9799 13.1024 10.9914 13.0748 11.0009 13.046C11.0134 13.0078 11.026 12.9684 11.0406 12.9312C11.0521 12.9025 11.0657 12.8748 11.0783 12.8461C11.094 12.811 11.1096 12.7748 11.1274 12.7397C11.1421 12.7121 11.1588 12.6855 11.1735 12.6578C11.1923 12.6249 11.2101 12.5919 11.2299 12.56C11.2467 12.5334 11.2655 12.5079 11.2843 12.4823C11.3053 12.4515 11.3262 12.4207 11.3492 12.3919C11.3691 12.3675 11.39 12.3441 11.4109 12.3196C11.435 12.292 11.458 12.2632 11.4831 12.2366C11.5051 12.2133 11.5291 12.192 11.5521 12.1696C11.5783 12.1441 11.6044 12.1186 11.6316 12.0952C11.6557 12.0739 11.6819 12.0548 11.707 12.0356C11.7352 12.0133 11.7635 11.991 11.7927 11.9697C11.8189 11.9505 11.8471 11.9346 11.8743 11.9165C11.9047 11.8974 11.935 11.8772 11.9654 11.8591C11.9936 11.8431 12.0229 11.8282 12.0522 11.8144C12.0846 11.7984 12.116 11.7814 12.1495 11.7665C12.1798 11.7527 12.2101 11.7421 12.2415 11.7293C12.275 11.7166 12.3085 11.7027 12.344 11.691C12.3754 11.6804 12.4078 11.6719 12.4403 11.6623C12.4758 11.6527 12.5104 11.6421 12.547 11.6347C12.5805 11.6272 12.6139 11.6219 12.6474 11.6155C12.684 11.6091 12.7206 11.6027 12.7583 11.5985C12.7928 11.5942 12.8273 11.5921 12.8629 11.5889C12.8891 11.5868 12.9142 11.5836 12.9403 11.5825C12.9529 11.5825 12.9644 11.5825 12.9769 11.5825C12.9895 11.5825 13.001 11.5804 13.0135 11.5804C13.0376 11.5804 13.0606 11.5825 13.0847 11.5836C13.1192 11.5836 13.1537 11.5857 13.1882 11.5879C13.228 11.591 13.2667 11.5953 13.3054 11.6006C13.3347 11.6049 13.364 11.6081 13.3933 11.6134C13.4341 11.6208 13.4749 11.6293 13.5146 11.6389C13.5418 11.6453 13.569 11.6517 13.5962 11.6591C13.636 11.6698 13.6747 11.6825 13.7134 11.6953C13.7416 11.7049 13.7688 11.7144 13.796 11.7251C13.8305 11.7389 13.8661 11.7527 13.8996 11.7687C13.931 11.7825 13.9613 11.7974 13.9927 11.8133C14.0209 11.8282 14.0492 11.8421 14.0764 11.858C14.113 11.8782 14.1485 11.9006 14.1841 11.9229C14.204 11.9357 14.2239 11.9484 14.2427 11.9612C14.2856 11.991 14.3274 12.0218 14.3682 12.0537C14.3787 12.0622 14.3891 12.0697 14.3996 12.0782C14.4488 12.1186 14.4958 12.1611 14.5408 12.2047C14.5429 12.2069 14.544 12.2079 14.5461 12.2101C14.8452 12.5025 15.0639 12.8791 15.1612 13.3045C15.1737 13.3619 15.1842 13.4204 15.1925 13.48C15.1946 13.497 15.1988 13.513 15.2009 13.53C15.2009 13.5374 15.2041 13.5449 15.2041 13.5523C15.2103 13.6108 15.2135 13.6682 15.2156 13.7257C15.2156 13.731 15.2166 13.7363 15.2166 13.7416C15.2166 13.7459 15.2166 13.7512 15.2166 13.7555C15.2177 13.8214 15.2166 13.8863 15.2124 13.9512C15.2124 13.9607 15.2114 13.9714 15.2103 13.9809C15.2051 14.0448 15.1978 14.1086 15.1873 14.1713C15.1863 14.1809 15.1842 14.1905 15.1821 14.2C15.1706 14.2628 15.157 14.3255 15.1413 14.3862C15.1392 14.3947 15.1371 14.4021 15.134 14.4106C15.1172 14.4723 15.0974 14.534 15.0754 14.5936C15.0733 14.6 15.0702 14.6053 15.0681 14.6117C15.045 14.6733 15.0189 14.7329 14.9907 14.7914C14.9886 14.7946 14.9875 14.7978 14.9854 14.801C14.9551 14.8616 14.9237 14.9201 14.8881 14.9775C14.8881 14.9775 14.8881 14.9786 14.8881 14.9797C14.8536 15.0371 14.816 15.0913 14.7762 15.1445C14.7731 15.1488 14.771 15.152 14.7678 15.1562C14.7291 15.2073 14.6883 15.2562 14.6465 15.3041C14.6423 15.3094 14.6371 15.3147 14.6329 15.32C14.591 15.3657 14.5471 15.4093 14.5021 15.4519C14.4958 15.4583 14.4896 15.4636 14.4833 15.47C14.4383 15.5115 14.3912 15.5497 14.3421 15.587C14.3348 15.5923 14.3274 15.5987 14.3201 15.604C14.2709 15.6402 14.2218 15.6742 14.1695 15.7072C14.1611 15.7125 14.1527 15.7178 14.1444 15.722C14.0921 15.754 14.0387 15.7827 13.9843 15.8103C13.9759 15.8146 13.9676 15.8188 13.9592 15.822C13.9038 15.8486 13.8462 15.8731 13.7887 15.8954C13.7803 15.8986 13.773 15.9007 13.7646 15.9039C13.705 15.9252 13.6443 15.9454 13.5826 15.9614C13.5763 15.9635 13.569 15.9645 13.5627 15.9667C13.4989 15.9826 13.4341 15.9975 13.3682 16.0082C13.364 16.0082 13.3598 16.0092 13.3556 16.0103C13.2866 16.0209 13.2165 16.0284 13.1453 16.0326C13.0292 16.039 12.9142 16.0358 12.8022 16.0241C12.728 16.0167 12.6537 16.0039 12.5815 15.989C12.2928 15.9263 12.026 15.8039 11.7927 15.6338C11.7059 15.57 11.6233 15.4998 11.5459 15.4232C11.5197 15.3976 11.4946 15.3711 11.4705 15.3445C11.3241 15.1839 11.2007 14.9988 11.1044 14.7967C11.0887 14.7627 11.073 14.7287 11.0594 14.6946C11.0312 14.6255 11.005 14.5542 10.9831 14.4808C10.9716 14.4447 10.9621 14.4074 10.9527 14.3702C10.9067 14.1841 10.8816 13.9873 10.8826 13.7842C10.8826 13.7821 10.8826 13.7799 10.8826 13.7778L10.8795 13.781ZM7.36882 22.4674C7.31337 22.4908 7.25689 22.511 7.19935 22.5301C7.14181 22.5493 7.08323 22.5652 7.02361 22.579C6.84996 22.6195 6.66898 22.6386 6.48382 22.6333C6.35097 22.629 6.22021 22.612 6.09363 22.5833C6.06748 22.578 6.04237 22.5705 6.01622 22.5641C5.69193 22.4791 5.39275 22.3195 5.14169 22.1036C4.82577 21.8313 4.58412 21.4729 4.4544 21.0666C4.43243 20.9985 4.41465 20.9305 4.39896 20.8603C4.36862 20.7199 4.35188 20.5752 4.34979 20.4285C4.34665 20.1923 4.37908 19.9658 4.44289 19.7541C4.71802 18.8352 5.57581 18.1896 6.61354 18.213C6.83949 18.2183 7.05499 18.2555 7.25584 18.3204C7.27571 18.3268 7.29559 18.3353 7.31547 18.3427C7.4274 18.3821 7.53619 18.4289 7.63766 18.4863C7.65963 18.498 7.67951 18.5129 7.70043 18.5257C8.32495 18.9022 8.73083 19.585 8.73711 20.3955C8.74443 21.3251 8.17013 22.1323 7.36882 22.4684V22.4674ZM14.7521 21.759C14.4969 22.094 14.1506 22.3578 13.7531 22.5056C13.5544 22.5801 13.3431 22.6258 13.1234 22.6375C13.0836 22.6397 13.0449 22.6407 13.0062 22.6407C11.845 22.6407 10.9318 21.7239 10.8806 20.505C10.8785 20.4646 10.8785 20.4231 10.8785 20.3817C10.8785 20.304 10.8826 20.2274 10.89 20.1519C10.8994 20.0583 10.9151 19.9679 10.9349 19.8786C10.9621 19.7531 10.9977 19.6329 11.0437 19.518C11.0699 19.4531 11.0992 19.3893 11.1316 19.3276C11.2603 19.0819 11.4339 18.8682 11.6432 18.6959C12.0103 18.3938 12.4884 18.2162 13.0313 18.2119C13.2165 18.2109 13.3954 18.2332 13.5648 18.2725C14.2354 18.4278 14.772 18.8809 15.0367 19.5021C15.1476 19.7616 15.2103 20.0509 15.2156 20.3583C15.225 20.8784 15.0503 21.3676 14.7511 21.759H14.7521ZM21.5946 14.4245C21.5099 14.7169 21.3708 14.986 21.1867 15.2168C21.1427 15.2721 21.0967 15.3243 21.0486 15.3753C20.9346 15.4944 20.8059 15.5987 20.6688 15.6901C20.3425 15.906 19.9585 16.0369 19.5485 16.0443C18.8832 16.0571 18.2942 15.7678 17.8967 15.2977C17.8266 15.2147 17.7628 15.1264 17.7042 15.0328C17.4741 14.6585 17.3485 14.2054 17.3674 13.7161C17.4165 12.4866 18.3863 11.5421 19.5673 11.573C19.6343 11.5751 19.7002 11.5804 19.7661 11.5889C19.7828 11.591 19.7995 11.5942 19.8152 11.5964C20.0161 11.6261 20.2096 11.6846 20.3906 11.7697C20.4544 11.7995 20.5161 11.8325 20.5768 11.8676C21.24 12.26 21.6951 13.0003 21.6846 13.8161C21.6825 14.0267 21.649 14.2309 21.5936 14.4245H21.5946Z" fill="black"/>
</svg>
