<svg width="26" height="26" viewBox="0 0 26 26" fill="none" xmlns="http://www.w3.org/2000/svg">
<path fill-rule="evenodd" clip-rule="evenodd" d="M4.48817 2.39631H21.1376C21.6974 2.39629 22.1804 2.39627 22.5782 2.42877C22.9981 2.46308 23.4157 2.53882 23.8175 2.74357C24.417 3.04903 24.9044 3.53643 25.2099 4.13593C25.4146 4.53778 25.4904 4.95539 25.5247 5.37525C25.5572 5.77305 25.5572 6.25601 25.5572 6.81585V21.3413C25.5572 21.9011 25.5572 22.3841 25.5247 22.7819C25.4904 23.2017 25.4146 23.6193 25.2099 24.0212C24.9044 24.6207 24.417 25.1081 23.8175 25.4135C23.4157 25.6183 22.9981 25.694 22.5782 25.7283C22.1804 25.7608 21.6974 25.7608 21.1376 25.7608H4.48814C3.92831 25.7608 3.44535 25.7608 3.04755 25.7283C2.62768 25.694 2.21008 25.6183 1.80823 25.4135C1.20873 25.1081 0.721325 24.6207 0.415866 24.0212C0.211114 23.6193 0.135375 23.2017 0.101071 22.7819C0.068569 22.3841 0.0685854 21.9011 0.0686044 21.3412V6.81587C0.0685854 6.25603 0.068569 5.77306 0.101071 5.37525C0.135375 4.95539 0.211114 4.53778 0.415866 4.13593C0.721325 3.53643 1.20873 3.04903 1.80823 2.74357C2.21008 2.53882 2.62768 2.46308 3.04755 2.42877C3.44535 2.39627 3.92832 2.39629 4.48817 2.39631ZM3.22052 4.54576C2.932 4.56934 2.82504 4.60935 2.77253 4.63611C2.57269 4.73793 2.41022 4.9004 2.3084 5.10023C2.28165 5.15274 2.24163 5.25971 2.21806 5.54822C2.19348 5.84913 2.19265 6.24449 2.19265 6.8568V21.3003C2.19265 21.9126 2.19348 22.308 2.21806 22.6089C2.24163 22.8974 2.28165 23.0044 2.3084 23.0569C2.41022 23.2567 2.57269 23.4192 2.77253 23.521C2.82504 23.5478 2.932 23.5878 3.22052 23.6114C3.52143 23.6359 3.91679 23.6368 4.5291 23.6368H21.0967C21.709 23.6368 22.1043 23.6359 22.4052 23.6114C22.6938 23.5878 22.8007 23.5478 22.8532 23.521C23.0531 23.4192 23.2155 23.2567 23.3174 23.0569C23.3441 23.0044 23.3841 22.8974 23.4077 22.6089C23.4323 22.308 23.4331 21.9126 23.4331 21.3003V6.8568C23.4331 6.24449 23.4323 5.84913 23.4077 5.54822C23.3841 5.25971 23.3441 5.15274 23.3174 5.10023C23.2155 4.9004 23.0531 4.73793 22.8532 4.63611C22.8007 4.60935 22.6938 4.56934 22.4052 4.54576C22.1043 4.52118 21.709 4.52035 21.0967 4.52035H4.5291C3.91679 4.52035 3.52143 4.52118 3.22052 4.54576Z" fill="black"/>
<path d="M4.3167 1.33429C4.3167 0.747747 4.79218 0.272263 5.37872 0.272263C5.96526 0.272263 6.44074 0.747746 6.44074 1.33429V5.58238C6.44074 6.16892 5.96526 6.6444 5.37872 6.6444C4.79218 6.6444 4.3167 6.16892 4.3167 5.58238V1.33429Z" fill="black"/>
<path d="M19.185 1.33429C19.185 0.747747 19.6605 0.272263 20.247 0.272263C20.8336 0.272263 21.3091 0.747746 21.3091 1.33429V5.58238C21.3091 6.16892 20.8336 6.6444 20.247 6.6444C19.6605 6.6444 19.185 6.16892 19.185 5.58238V1.33429Z" fill="black"/>
<path d="M14.9369 13.0165C14.9369 14.1896 13.986 15.1406 12.8129 15.1406C11.6398 15.1406 10.6888 14.1896 10.6888 13.0165C10.6888 11.8435 11.6398 10.8925 12.8129 10.8925C13.986 10.8925 14.9369 11.8435 14.9369 13.0165Z" fill="black"/>
<path d="M21.3091 13.0165C21.3091 14.1896 20.3581 15.1406 19.185 15.1406C18.0119 15.1406 17.061 14.1896 17.061 13.0165C17.061 11.8435 18.0119 10.8925 19.185 10.8925C20.3581 10.8925 21.3091 11.8435 21.3091 13.0165Z" fill="black"/>
<path d="M8.56479 19.3887C8.56479 20.5618 7.61382 21.5127 6.44074 21.5127C5.26766 21.5127 4.3167 20.5618 4.3167 19.3887C4.3167 18.2156 5.26766 17.2646 6.44074 17.2646C7.61382 17.2646 8.56479 18.2156 8.56479 19.3887Z" fill="black"/>
<path d="M14.9369 19.3887C14.9369 20.5618 13.986 21.5127 12.8129 21.5127C11.6398 21.5127 10.6888 20.5618 10.6888 19.3887C10.6888 18.2156 11.6398 17.2646 12.8129 17.2646C13.986 17.2646 14.9369 18.2156 14.9369 19.3887Z" fill="black"/>
</svg>
