<svg width="23" height="23" viewBox="0 0 23 23" fill="none" xmlns="http://www.w3.org/2000/svg">
<path d="M22.9507 21.0704C22.5196 18.3308 21.3504 16.6407 21.3504 16.6407C19.5267 14.005 16.9352 12.7083 15.6129 12.1571C18.8098 8.81349 19.0639 4.9754 16.3645 2.15021C13.796 -0.537413 9.78593 -0.727875 6.99514 1.70484C3.98782 4.32706 4.05037 8.26134 7.21359 12.1581C6.63522 12.4582 6.05974 12.7314 5.50928 13.0479C3.51243 14.1964 1.99193 15.6615 1.05942 17.4958C1.05942 17.4958 0.31553 18.8666 0.0172042 21.6302C-0.0107037 21.889 -0.0395739 22.3247 0.233731 22.647C0.445446 22.8961 0.750508 22.9721 0.922767 23C7.80254 22.9788 14.6823 22.9577 21.5621 22.9355C21.8017 22.9336 22.3705 22.8942 22.7198 22.4863C23.0691 22.0785 23.02 21.5129 22.9498 21.0694L22.9507 21.0704Z" fill="black"/>
</svg>
