<svg width="28" height="24" viewBox="0 0 28 24" fill="none" xmlns="http://www.w3.org/2000/svg">
<path d="M27.9701 3.61915C27.9539 1.2614 26.7455 0.0262955 24.4878 0.0190057C17.5051 -0.0070295 10.5214 -0.00494668 3.53864 0.0169229C1.24858 0.0242127 0.0371415 1.23224 0.0239627 3.56395C-0.00847741 9.18963 -0.00847741 14.8153 0.0270039 20.44C0.0411965 22.7404 1.16342 23.9026 3.41091 23.937C6.95296 23.9901 10.497 23.9505 14.0401 23.9505C14.0401 23.9672 14.0401 23.9828 14.0401 23.9995C17.1665 23.9995 20.294 24.0016 23.4204 23.9974C23.7843 23.9974 24.1493 23.9693 24.5132 23.9505C26.8306 23.8297 27.96 22.7123 27.9741 20.3348C28.0086 14.7632 28.0096 9.19067 27.9711 3.62019L27.9701 3.61915ZM4.90011 6.43824C4.74095 6.29036 4.6781 6.03209 4.64363 5.74154C4.58382 5.23125 4.96195 4.78136 5.46173 4.7647C5.84392 4.75116 6.20177 4.7699 6.42683 4.95632C8.81726 6.93395 11.1073 9.03967 13.4339 11.0985C13.4359 11.0996 13.4369 11.1017 13.439 11.1027C13.7532 11.3787 14.2195 11.3693 14.5328 11.0923C16.7286 9.15214 18.8575 7.27136 20.9863 5.39058C21.2236 5.18126 21.4365 4.83655 21.7 4.78865C21.9464 4.74387 22.1978 4.73241 22.4522 4.73345C22.9449 4.73345 23.3332 5.16668 23.2957 5.67072C23.2693 6.01959 23.2146 6.33514 23.0311 6.50385C20.2646 9.05737 17.425 11.5266 14.5277 14.0811C14.2094 14.3613 13.739 14.3613 13.4217 14.079C10.5548 11.5328 7.69503 9.02197 4.90113 6.4372L4.90011 6.43824Z" fill="black"/>
</svg>
